<?xml version="1.0" standalone="no"?>
<!DOCTYPE svg PUBLIC "-//W3C//DTD SVG 20010904//EN"
 "http://www.w3.org/TR/2001/REC-SVG-20010904/DTD/svg10.dtd">
<svg version="1.0" xmlns="http://www.w3.org/2000/svg"
 width="952.000000pt" height="328.000000pt" viewBox="0 0 952.000000 328.000000"
 preserveAspectRatio="xMidYMid meet">

<g transform="translate(0.000000,328.000000) scale(0.100000,-0.100000)"
fill="#fff" stroke="none">
<path d="M4815 3077 c-87 -42 -149 -103 -189 -187 -29 -61 -31 -72 -31 -175 0
-88 5 -122 22 -169 27 -71 62 -119 114 -153 53 -35 51 -58 -7 -72 -98 -25
-300 -145 -363 -217 -69 -79 -84 -196 -39 -295 31 -67 83 -125 218 -246 158
-143 155 -138 155 -263 0 -102 1 -105 23 -108 34 -5 48 11 77 89 32 82 63 122
116 150 85 43 125 174 82 270 -64 143 -247 301 -298 259 -20 -17 -8 -37 80
-131 146 -156 167 -214 101 -283 -69 -73 -141 -44 -307 123 -127 129 -169 195
-169 268 0 69 21 106 87 151 275 186 674 263 856 164 109 -59 147 -149 154
-362 6 -172 -12 -328 -57 -504 -34 -130 -36 -189 -7 -194 83 -16 172 322 171
653 -1 254 -35 355 -155 455 -68 57 -92 71 -134 80 -38 8 -37 30 4 97 64 105
79 233 42 352 -57 184 -175 271 -376 278 -96 3 -103 2 -170 -30z m291 -96
c105 -47 174 -147 175 -254 2 -293 -363 -428 -538 -199 -40 53 -53 98 -53 187
0 214 218 353 416 266z"/>
<path d="M610 3088 c-30 -11 -38 -21 -57 -73 -372 -1029 -450 -1254 -440
-1278 5 -15 23 -17 119 -17 62 0 122 3 134 6 16 4 28 31 59 130 l38 124 273 0
272 0 30 -82 c16 -46 35 -100 41 -121 7 -20 22 -43 34 -50 24 -13 251 -17 264
-4 4 5 -13 70 -39 146 -81 239 -389 1084 -417 1141 -23 49 -31 56 -71 68 -69
19 -199 24 -240 10z m146 -385 c23 -57 174 -481 174 -492 0 -13 -169 -24 -259
-16 -127 11 -124 4 -62 196 54 166 121 349 127 349 2 0 11 -17 20 -37z"/>
<path d="M7394 2811 c-126 -31 -207 -85 -279 -185 -24 -34 -54 -85 -65 -112
-30 -68 -60 -199 -60 -259 0 -116 75 -302 161 -398 96 -108 268 -163 430 -137
89 13 140 38 222 105 l66 55 3 -77 c4 -92 1 -90 156 -92 l102 -1 0 550 0 550
-92 0 c-51 0 -110 -5 -130 -11 -34 -9 -38 -14 -38 -42 0 -48 -11 -77 -27 -77
-8 0 -32 13 -52 29 -49 39 -122 75 -205 100 -81 25 -99 25 -192 2z m301 -277
c92 -43 144 -140 145 -270 0 -87 -17 -147 -60 -209 -45 -66 -109 -95 -210 -95
-125 1 -195 47 -254 170 -55 114 -37 243 49 356 61 79 216 102 330 48z"/>
<path d="M3076 2805 c-178 -45 -314 -192 -361 -392 -19 -77 -18 -232 0 -312
36 -152 133 -279 261 -342 67 -33 71 -34 199 -34 151 0 204 14 301 76 33 21
63 39 67 39 4 0 7 -25 7 -55 0 -54 0 -54 38 -64 20 -6 79 -11 130 -11 l92 0 0
550 0 550 -92 0 c-51 0 -110 -5 -130 -11 -38 -10 -38 -10 -38 -64 0 -30 -3
-55 -7 -55 -5 0 -39 20 -77 45 -38 24 -94 54 -125 66 -73 27 -188 33 -265 14z
m301 -260 c113 -47 189 -208 163 -345 -40 -211 -304 -325 -449 -194 -85 76
-126 262 -86 384 24 71 94 143 161 164 58 19 154 15 211 -9z"/>
<path d="M2206 2494 c-122 -328 -163 -430 -171 -423 -5 5 -183 480 -235 625
-38 108 -30 104 -207 104 -92 0 -115 -3 -119 -15 -8 -19 28 -110 233 -604 114
-275 163 -405 163 -432 0 -26 -22 -87 -65 -184 -66 -148 -145 -339 -145 -353
0 -9 282 6 291 16 4 4 64 144 134 312 107 259 374 892 491 1164 22 52 31 83
24 90 -5 5 -69 11 -143 14 l-133 4 -118 -318z"/>
<path d="M5788 2733 c16 -43 113 -281 215 -529 l187 -451 -95 -222 c-114 -267
-124 -299 -104 -312 8 -5 71 -9 141 -9 123 0 127 1 134 22 4 13 130 318 281
678 361 860 366 873 346 884 -9 5 -73 9 -142 10 l-125 1 -68 -185 c-104 -281
-198 -519 -209 -526 -13 -8 -54 87 -175 411 l-106 284 -42 5 c-22 3 -92 8
-153 11 l-113 5 28 -77z"/>
<path d="M8350 2801 c-36 -5 -46 -10 -48 -28 -3 -20 37 -124 282 -728 115
-285 116 -289 87 -372 -13 -37 -61 -152 -107 -257 -45 -104 -80 -194 -78 -198
3 -4 60 -8 128 -8 109 0 125 2 144 20 32 30 58 85 170 361 55 134 132 318 172
409 203 466 331 783 318 792 -7 4 -70 8 -139 8 l-126 0 -51 -127 c-27 -71 -84
-218 -125 -328 -42 -110 -84 -218 -93 -240 l-17 -40 -22 50 c-12 28 -78 195
-145 373 l-123 322 -91 -2 c-50 0 -111 -4 -136 -7z"/>
<path d="M3992 1618 c-21 -21 -13 -47 18 -63 19 -10 57 -15 110 -15 88 0 140
18 140 48 0 36 -21 42 -140 42 -77 0 -120 -4 -128 -12z"/>
<path d="M4224 1439 c-47 -37 -131 -135 -140 -162 -3 -11 0 -26 9 -35 14 -13
20 -12 61 12 47 28 139 129 151 166 7 22 -9 50 -30 50 -7 0 -30 -14 -51 -31z"/>
<path d="M6943 836 c-105 -26 -166 -89 -166 -173 0 -75 49 -123 185 -178 118
-49 155 -98 108 -145 -28 -28 -78 -25 -138 6 -34 18 -68 27 -104 28 -50 1 -53
0 -50 -23 13 -120 253 -184 375 -99 36 26 69 93 69 140 -1 71 -33 105 -174
182 -78 42 -128 82 -128 101 0 44 110 61 159 24 20 -15 45 -22 80 -22 71 -1
81 12 48 62 -36 55 -83 87 -145 100 -61 13 -52 13 -119 -3z"/>
<path d="M5110 821 c-107 -56 -134 -228 -46 -286 13 -9 61 -31 107 -50 45 -19
93 -44 106 -57 27 -25 31 -79 8 -98 -20 -16 -96 -5 -127 19 -33 25 -65 31
-128 22 l-55 -7 65 -65 c71 -70 112 -89 196 -89 59 0 142 36 172 75 29 36 45
100 37 142 -10 56 -56 97 -153 138 -125 52 -161 92 -132 146 15 27 69 25 130
-6 87 -44 168 -27 142 29 -38 84 -231 136 -322 87z"/>
<path d="M6270 823 c-98 -34 -176 -115 -201 -207 -34 -127 33 -301 141 -364
38 -23 59 -27 143 -30 125 -5 168 10 246 87 84 81 95 107 88 205 -7 109 -29
166 -89 231 -81 88 -210 119 -328 78z m156 -108 c87 -26 128 -86 128 -190 0
-83 -27 -145 -77 -176 -26 -16 -46 -19 -109 -17 -90 4 -121 21 -156 89 -19 36
-23 56 -20 115 5 114 58 171 179 193 3 1 28 -6 55 -14z"/>
<path d="M2290 525 l0 -305 70 0 70 0 0 305 0 305 -70 0 -70 0 0 -305z"/>
<path d="M2530 526 l0 -306 55 0 c45 0 56 4 66 22 6 11 16 93 21 182 5 88 10
162 12 163 1 2 24 -52 51 -120 87 -221 115 -260 168 -236 37 17 72 74 132 217
l53 124 4 -160 c3 -114 8 -164 17 -176 9 -11 30 -16 67 -16 l54 0 0 305 0 305
-53 0 c-45 0 -57 -4 -79 -27 -29 -31 -84 -139 -148 -290 -24 -57 -48 -103 -55
-103 -15 0 -41 49 -110 207 -32 73 -72 149 -90 170 -30 34 -36 37 -98 41 l-67
4 0 -306z"/>
<path d="M3360 526 l0 -306 53 0 c29 0 58 5 65 12 8 8 12 49 12 119 l0 107 93
4 c107 5 155 23 195 76 24 31 27 45 27 108 0 88 -17 117 -91 154 -44 23 -63
25 -201 28 l-153 4 0 -306z m280 184 c24 -13 36 -71 20 -100 -15 -28 -68 -50
-119 -50 -32 0 -40 4 -45 23 -9 33 -7 82 4 111 9 24 15 26 65 26 31 0 65 -5
75 -10z"/>
<path d="M3911 816 c-19 -22 -25 -171 -12 -301 14 -142 48 -229 105 -264 81
-50 212 -49 293 2 91 57 118 143 129 410 l7 167 -60 0 c-49 0 -62 -4 -68 -17
-4 -10 -11 -99 -15 -198 -10 -246 -28 -285 -135 -285 -57 0 -91 18 -107 59 -6
14 -14 112 -18 218 -4 135 -10 196 -19 207 -17 20 -84 21 -100 2z"/>
<path d="M4530 525 l0 -305 159 0 c169 0 211 8 211 38 0 34 -33 52 -121 63
-46 5 -89 15 -96 21 -16 13 -18 124 -2 134 6 3 49 9 95 13 90 7 116 20 98 49
-14 22 -45 30 -120 31 -77 1 -86 11 -82 87 4 69 8 71 130 73 81 1 108 14 108
51 0 42 -34 50 -212 50 l-168 0 0 -305z"/>
<path d="M5548 823 c-27 -7 -29 -31 -5 -58 18 -22 34 -27 92 -33 l70 -7 5
-240 c3 -132 9 -246 13 -253 5 -6 21 -12 37 -12 16 0 32 6 37 12 4 7 10 121
13 253 l5 240 80 3 c89 3 105 12 105 53 0 22 -6 32 -26 39 -24 10 -392 12
-426 3z"/>
</g>
</svg>
