<svg width="24" height="24" viewBox="0 0 24 24" fill="none" xmlns="http://www.w3.org/2000/svg">
<g clip-path="url(#clip0_144_269)">
<path fill-rule="evenodd" clip-rule="evenodd" d="M0 9.68804C0 4.34621 4.3462 0 9.68804 0C15.0299 0 19.3761 4.34621 19.3761 9.68804C19.3761 15.0299 15.0299 19.3752 9.68804 19.3752C4.34621 19.3752 0 15.0299 0 9.68804ZM20.8813 9.68804C20.8813 7.86587 20.4411 6.14659 19.6655 4.62478C22.2832 6.46026 24 9.49797 24 12.9307C24 18.5223 19.4504 23.0711 13.8588 23.0711C11.3338 23.0711 9.02388 22.1412 7.24697 20.6092C8.0336 20.7849 8.8495 20.8804 9.68804 20.8804C15.86 20.8804 20.8813 15.8596 20.8813 9.68804ZM9.32947 12.4639H10.5178L12.69 8.265H12.9584V14.0913H14.875V5.14685H12.8178L10.0578 10.2899H9.78947L7.02946 5.14685H4.97223V14.0913H6.88891V8.265H7.15724L9.32947 12.4639Z" fill="url(#paint0_linear_144_269)"/>
</g>
<defs>
<linearGradient id="paint0_linear_144_269" x1="0" y1="11.5355" x2="24" y2="11.5355" gradientUnits="userSpaceOnUse">
<stop stop-color="#8C44FF"/>
<stop offset="1" stop-color="#DC68FF"/>
</linearGradient>
<clipPath id="clip0_144_269">
<rect width="24" height="24" rx="3.78947" fill="white"/>
</clipPath>
</defs>
</svg>
